<svg xmlns="http://www.w3.org/2000/svg" width="42" height="42" viewBox="0 0 42 42"><path fill="#1ECCB0" d="M0,21c0,11.5,9.4,21,21,21s21-9.4,21-21S32.5,0,21,0S0,9.5,0,21z"/><path fill="#FFF" d="M18.1,32.9c-0.8-1.3-1.8-2.5-3.1-3.3s-2.6-1.4-4.2-1.8c-0.1,0-0.3,0-0.4,0.1c-0.1,0.1-0.1,0.3-0.1,0.4 c0,0.1,0,0.3,0.1,0.3c1.7,2.5,4.3,4.3,7.2,5.1h0.1c0.1,0,0.1,0,0.3,0c0,0,0.1,0,0.1-0.1l0.1-0.1c0,0,0-0.1,0-0.3 C18.2,33.1,18.2,32.9,18.1,32.9z"/><path fill="#FFF" d="M33.6,17.5v-0.1c-0.7-2.4-2-4.5-3.8-6c-1.8-1.6-3.9-2.8-6.3-3.1h-0.1c-0.1,0-0.3,0-0.4,0.1 c-0.1,0.1-0.1,0.3-0.1,0.4v0.1c1.2,7.2,0.4,14.5-2.2,21.4c0,0.1-0.1,0.1-0.1,0.3c0,0.1-0.1,0.1-0.3,0.1c-0.1,0-0.1,0-0.3,0 c0,0-0.1,0-0.1-0.1l-0.1-0.1c0,0,0-0.1,0-0.3c0,0-0.1-0.9-0.1-1.3c-0.8-6.3-2.6-12.3-5.6-17.9c0-0.1-0.1-0.1-0.1-0.1l-0.1-0.1 c0,0-0.1,0-0.3,0c-0.1,0-0.1,0-0.3,0C11.3,12,9.9,13.8,8.9,16c0,0.1,0,0.3,0,0.4c0,0.1,0.1,0.3,0.3,0.3c2.9,1.8,5.2,4.2,6.9,7.2 c1.7,2.9,2.6,6.3,2.8,9.6c0,0.1,0,0.3,0.1,0.4c0.1,0.1,0.3,0.1,0.3,0.1c0.3,0,0.7,0.1,0.9,0.1c0.1,0,0.3,0,0.4-0.1 c0.1-0.1,0.1-0.1,0.1-0.3c0.7-3.4,2.1-6.7,4.3-9.4s5-4.8,8.3-6.3c0.1,0,0.1-0.1,0.3-0.1C33.6,17.6,33.6,17.6,33.6,17.5z"/><path fill="#FFF" d="M31.9,26.9h-0.1c-4.1,0.9-7.7,3.1-10.3,6.3c-0.1,0.1-0.1,0.3-0.1,0.4c0,0.1,0,0.3,0.1,0.4 c0.1,0.1,0.3,0.1,0.4,0.1c2.1-0.1,4.2-0.8,6-1.8c1.8-1,3.4-2.6,4.5-4.5c0.1-0.1,0.1-0.3,0.1-0.4c0-0.1,0-0.3-0.1-0.4 C32.1,26.9,32,26.9,31.9,26.9z"/></svg>